# xmcd
#
# Track frame offsets:
#	150
#	22903
#	39584
#	65974
#	96206
#	118941
#	131056
#	145673
#	174253
#	187992
#	205030
#	230864
#	249586
#	273339
#	290317
#	317534
#	332168
#
# Disc length: 4721 seconds
#
# Revision: 2
# Processed by: cddbd v1.5.2PL0 Copyright (c) Steve Scherf et al.
# Submitted via: audiograbber 1.83.01
#
DISCID=fb126f11
DTITLE=Robin Trower - Day Of The Eagle (The Best Of) (2008)
DYEAR=2008
DGENRE=Rock
TTITLE0=Day Of The Eagle (2007 Digital Remaster)
TTITLE1=Celdonia (2008 Digital Remaster)
TTITLE2=Confessin' Midnight (2008 Digital Remaster)
TTITLE3=Too Rolling Stoned (Live 03.02.1975 at Stockholm Concert Hall) (2008 Di
TTITLE3=gital Remaster)
TTITLE4=Bridge Of Sighs (2007 Digital Remaster)
TTITLE5=Man Of The World (2008 Digital Remaster)
TTITLE6=Take A Fast Train (2008 Digital Remaster)
TTITLE7=Daydream (2008 Digital Remaster)
TTITLE8=Gonna Be More Suspicious (2008 Digital Remaster)
TTITLE9=About To Begin (2007 Digital Remaster)
TTITLE10=Long Misty Days (2008 Digital Remaster)
TTITLE11=Alethea (Live 03.02.1975 at Stockholm Concert Hall) (2008 Digital Rema
TTITLE11=ster)
TTITLE12=In City Dreams (2008 Digital Remaster)
TTITLE13=Victims Of The Fury (2008 Digital Remaster)
TTITLE14=Rock Me Baby (Live 03.02.1975 at Stockholm Concert Hall) (2008 Digital
TTITLE14=Remaster)
TTITLE15=The Ring (2008 Digital Remaster)
TTITLE16=Caravan To Midnight (2008 Digital Remaster)
EXTD=2008 (This Compilation]\n\nMARO\n
EXTT0=
EXTT1=
EXTT2=
EXTT3=
EXTT4=
EXTT5=
EXTT6=
EXTT7=
EXTT8=
EXTT9=
EXTT10=
EXTT11=
EXTT12=
EXTT13=
EXTT14=
EXTT15=
EXTT16=
PLAYORDER=
